<?xml version="1.0" encoding="UTF-8" standalone="no"?><!DOCTYPE svg PUBLIC "-//W3C//DTD SVG 1.1//EN" "http://www.w3.org/Graphics/SVG/1.1/DTD/svg11.dtd"><!-- Generated by graphviz version 2.40.1 (20161225.0304)
 --><!-- Title: G Pages: 1 --><svg xmlns="http://www.w3.org/2000/svg" xmlns:xlink="http://www.w3.org/1999/xlink" width="262pt" height="260pt" viewBox="0.00 0.00 262.10 260.00">
<g id="graph0" class="graph" transform="scale(1 1) rotate(0) translate(4 256)">
<title>G</title>
<polygon fill="#ffffff" stroke="transparent" points="-4,4 -4,-256 258.0975,-256 258.0975,4 -4,4"/>
<!-- neodevelop -->
<g id="node1" class="node">
<title>neodevelop</title>
<ellipse fill="none" stroke="#000000" cx="55.5512" cy="-234" rx="55.6024" ry="18"/>
<text text-anchor="middle" x="55.5512" y="-229.8" font-family="Times,serif" font-size="14.00" fill="#000000">neodevelop</text>
</g>
<!-- 3rickDJ -->
<g id="node2" class="node">
<title>3rickDJ</title>
<ellipse fill="none" stroke="#000000" cx="120.5512" cy="-162" rx="41.7114" ry="18"/>
<text text-anchor="middle" x="120.5512" y="-157.8" font-family="Times,serif" font-size="14.00" fill="#000000">3rickDJ</text>
</g>
<!-- neodevelop&#45;&gt;3rickDJ -->
<g id="edge1" class="edge">
<title>neodevelop-&gt;3rickDJ</title>
<path fill="none" stroke="#000000" d="M71.2858,-216.5708C79.4684,-207.5071 89.6033,-196.2807 98.5493,-186.3713"/>
<polygon fill="#000000" stroke="#000000" points="101.3058,-188.541 105.4089,-178.7729 96.1099,-183.8502 101.3058,-188.541"/>
</g>
<!-- glaforge -->
<g id="node4" class="node">
<title>glaforge</title>
<ellipse fill="none" stroke="#000000" cx="120.5512" cy="-18" rx="43.4183" ry="18"/>
<text text-anchor="middle" x="120.5512" y="-13.8" font-family="Times,serif" font-size="14.00" fill="#000000">glaforge</text>
</g>
<!-- neodevelop&#45;&gt;glaforge -->
<g id="edge3" class="edge">
<title>neodevelop-&gt;glaforge</title>
<path fill="none" stroke="#000000" d="M49.1132,-215.7878C39.2051,-184.4809 23.7196,-119.272 47.5512,-72 52.0533,-63.0696 70.0254,-49.7263 87.0091,-38.5383"/>
<polygon fill="#000000" stroke="#000000" points="89.2163,-41.2796 95.7238,-32.9189 85.4228,-35.3966 89.2163,-41.2796"/>
</g>
<!-- graemerocher -->
<g id="node5" class="node">
<title>graemerocher</title>
<ellipse fill="none" stroke="#000000" cx="120.5512" cy="-90" rx="64.2243" ry="18"/>
<text text-anchor="middle" x="120.5512" y="-85.8" font-family="Times,serif" font-size="14.00" fill="#000000">graemerocher</text>
</g>
<!-- 3rickDJ&#45;&gt;graemerocher -->
<g id="edge5" class="edge">
<title>3rickDJ-&gt;graemerocher</title>
<path fill="none" stroke="#000000" d="M114.5988,-143.8314C113.8483,-136.131 113.6274,-126.9743 113.9361,-118.4166"/>
<polygon fill="#000000" stroke="#000000" points="117.4304,-118.6161 114.5752,-108.4133 110.4446,-118.1697 117.4304,-118.6161"/>
</g>
<!-- carlogilmar -->
<g id="node3" class="node">
<title>carlogilmar</title>
<ellipse fill="none" stroke="#000000" cx="198.5512" cy="-234" rx="55.5927" ry="18"/>
<text text-anchor="middle" x="198.5512" y="-229.8" font-family="Times,serif" font-size="14.00" fill="#000000">carlogilmar</text>
</g>
<!-- carlogilmar&#45;&gt;3rickDJ -->
<g id="edge2" class="edge">
<title>carlogilmar-&gt;3rickDJ</title>
<path fill="none" stroke="#000000" d="M180.0662,-216.937C169.8173,-207.4765 156.926,-195.5768 145.764,-185.2734"/>
<polygon fill="#000000" stroke="#000000" points="148.0885,-182.6559 138.3665,-178.4449 143.3406,-187.7996 148.0885,-182.6559"/>
</g>
<!-- carlogilmar&#45;&gt;glaforge -->
<g id="edge4" class="edge">
<title>carlogilmar-&gt;glaforge</title>
<path fill="none" stroke="#000000" d="M202.8746,-215.7014C209.2844,-184.2641 218.0909,-118.8639 193.5512,-72 185.8127,-57.2217 171.9985,-45.4342 158.4537,-36.6899"/>
<polygon fill="#000000" stroke="#000000" points="160.0286,-33.5524 149.6584,-31.3823 156.4119,-39.5457 160.0286,-33.5524"/>
</g>
<!-- glaforge&#45;&gt;graemerocher -->
<g id="edge6" class="edge">
<title>glaforge-&gt;graemerocher</title>
<path fill="none" stroke="#000000" d="M126.4784,-35.9134C127.2523,-43.6993 127.4802,-53.01 127.1622,-61.6941"/>
<polygon fill="#000000" stroke="#000000" points="123.6594,-61.6254 126.5036,-71.8314 130.6447,-62.0794 123.6594,-61.6254"/>
</g>
<!-- graemerocher&#45;&gt;3rickDJ -->
<g id="edge7" class="edge">
<title>graemerocher-&gt;3rickDJ</title>
<path fill="none" stroke="#000000" d="M126.5272,-108.4133C127.2583,-116.0593 127.4714,-125.1084 127.1666,-133.5726"/>
<polygon fill="#000000" stroke="#000000" points="123.6559,-133.6264 126.5036,-143.8314 130.6414,-134.078 123.6559,-133.6264"/>
</g>
<!-- graemerocher&#45;&gt;glaforge -->
<g id="edge8" class="edge">
<title>graemerocher-&gt;glaforge</title>
<path fill="none" stroke="#000000" d="M114.5988,-71.8314C113.8368,-64.0125 113.6208,-54.6923 113.9507,-46.0221"/>
<polygon fill="#000000" stroke="#000000" points="117.4516,-46.1239 114.6239,-35.9134 110.467,-45.6587 117.4516,-46.1239"/>
</g>
</g>
</svg>